<svg id="visual" viewBox="0 0 960 540" width="960" height="540" xmlns="http://www.w3.org/2000/svg" xmlns:xlink="http://www.w3.org/1999/xlink" version="1.1"><rect x="0" y="0" width="960" height="540" fill="#eee"></rect><path d="M0 44L32 69.2C64 94.3 128 144.7 192 172.2C256 199.7 320 204.3 384 207.2C448 210 512 211 576 211C640 211 704 210 768 189C832 168 896 127 928 106.5L960 86L960 541L928 541C896 541 832 541 768 541C704 541 640 541 576 541C512 541 448 541 384 541C320 541 256 541 192 541C128 541 64 541 32 541L0 541Z" fill="#ffffff"></path><path d="M0 151L32 154.2C64 157.3 128 163.7 192 191.3C256 219 320 268 384 284.7C448 301.3 512 285.7 576 254.7C640 223.7 704 177.3 768 185.7C832 194 896 257 928 288.5L960 320L960 541L928 541C896 541 832 541 768 541C704 541 640 541 576 541C512 541 448 541 384 541C320 541 256 541 192 541C128 541 64 541 32 541L0 541Z" fill="#f9f9f9"></path><path d="M0 343L32 332.2C64 321.3 128 299.7 192 303.2C256 306.7 320 335.3 384 327.7C448 320 512 276 576 266.2C640 256.3 704 280.7 768 299.3C832 318 896 331 928 337.5L960 344L960 541L928 541C896 541 832 541 768 541C704 541 640 541 576 541C512 541 448 541 384 541C320 541 256 541 192 541C128 541 64 541 32 541L0 541Z" fill="#f3f3f3"></path><path d="M0 373L32 366.2C64 359.3 128 345.7 192 343.5C256 341.3 320 350.7 384 351.7C448 352.7 512 345.3 576 357.8C640 370.3 704 402.7 768 426.5C832 450.3 896 465.7 928 473.3L960 481L960 541L928 541C896 541 832 541 768 541C704 541 640 541 576 541C512 541 448 541 384 541C320 541 256 541 192 541C128 541 64 541 32 541L0 541Z" fill="#eeeeee"></path></svg>